<?xml version="1.0" encoding="UTF-8" standalone="no"?>
<!-- Generator: Gravit.io -->
<svg xmlns="http://www.w3.org/2000/svg" xmlns:xlink="http://www.w3.org/1999/xlink" style="isolation:isolate" viewBox="561 248.18 284.613 323.82" width="284.613pt" height="323.82pt"><defs><clipPath id="_clipPath_i9hxDD5o2OmWVXIoenBOPlGo5S7eJnDs"><rect x="561" y="248.18" width="284.613" height="323.82"/></clipPath></defs><g clip-path="url(#_clipPath_i9hxDD5o2OmWVXIoenBOPlGo5S7eJnDs)"><path d=" M 715.5 565.697 C 730.6 557.497 826.9 505.097 836.7 499.797 C 840.8 497.597 844.5 495.297 844.9 494.697 C 845.3 494.097 845.6 476.997 845.4 456.597 L 845.2 419.597 L 838.2 416.097 C 830.2 412.097 805.4 400.097 786.2 390.997 C 771.4 383.997 759.3 378.297 739.2 368.597 C 731.5 364.897 721.6 360.197 717.2 358.097 C 688.2 344.497 675.6 338.497 660.2 330.997 L 647.2 324.697 L 652.2 324.297 C 655 324.097 673.6 324.397 693.7 325.097 L 730.2 326.197 L 745.2 333.097 C 753.5 336.797 764.5 341.897 769.7 344.397 C 774.9 346.797 787.3 352.497 797.2 357.097 C 807.1 361.597 821.5 368.197 829.1 371.697 C 836.8 375.197 843.6 378.097 844.3 378.097 C 845.4 378.097 845.6 369.297 845.6 331.897 C 845.7 303.697 845.2 283.297 844.6 279.697 C 842.4 267.297 834.2 256.197 823.7 251.197 L 818.2 248.597 L 705.3 248.297 C 581.3 247.997 586.6 247.797 578 253.997 C 573.5 257.297 566.7 266.497 563.5 273.797 C 561.6 278.197 561.5 280.697 561.2 321.897 L 561 365.397 L 587.6 378.397 C 602.2 385.497 627.7 397.897 644.2 405.797 C 701.3 433.497 706.3 435.897 727.2 446.097 C 738.8 451.697 749.2 456.697 750.5 457.197 C 751.8 457.697 752.7 458.597 752.5 459.197 C 752.3 459.797 743.9 464.497 733.9 469.697 C 716 478.697 715.5 478.897 712.4 477.597 C 710.6 476.797 702.8 472.997 694.9 469.197 C 687 465.297 680.4 462.097 680.3 462.097 C 680.1 462.097 667 455.797 651.1 447.997 C 635.2 440.297 619.1 432.397 615.2 430.597 C 611.4 428.797 597.9 422.297 585.3 416.197 C 572.6 410.197 562.1 405.397 561.8 405.597 C 561.5 405.797 561.2 425.597 561.2 449.597 L 561.2 493.297 L 564.2 495.797 C 565.9 497.197 578.2 504.297 591.7 511.597 C 605.2 518.997 635.6 535.497 659.2 548.497 C 682.9 561.397 702.6 571.997 703 571.997 C 703.4 572.097 709.1 569.197 715.5 565.697 Z " fill="rgb(183,33,255)"/></g></svg>