<?xml version="1.0" encoding="UTF-8" standalone="no"?>
<!-- Generator: Gravit.io -->
<svg xmlns="http://www.w3.org/2000/svg" xmlns:xlink="http://www.w3.org/1999/xlink" style="isolation:isolate" viewBox="0 0 233.363 264.281" width="233.363pt" height="264.281pt"><defs><clipPath id="_clipPath_c7iOMXrxBxTwN6t3j9syeWaI3ea4nmuJ"><rect width="233.363" height="264.281"/></clipPath></defs><g clip-path="url(#_clipPath_c7iOMXrxBxTwN6t3j9syeWaI3ea4nmuJ)"><radialGradient id="_rgradient_2" fx="0.5" fy="0.5" cx="0.5" cy="0.5" r="0.5" gradientTransform="matrix(620.976,0,-5.427,477.563,-191.074,-106.619)" gradientUnits="userSpaceOnUse"><stop offset="0%" stop-opacity="1" style="stop-color:rgb(103,58,183)"/><stop offset="100%" stop-opacity="1" style="stop-color:rgb(0,0,0)"/></radialGradient><path d=" M 43.307 0.281 L 161.326 0.281 L 196.332 0.281 Q 217.585 0.031 225.836 12.783 Q 235.463 24.16 232.837 47.789 L 232.837 104.798 L 230.337 108.299 C 226.983 108.656 223.071 108.559 220.335 106.299 L 220.335 106.299 L 204.833 98.797 L 162.826 79.794 C 142.662 64.179 114.532 63.65 90.315 66.292 L 90.315 66.292 L 86.814 67.792 L 87.314 69.293 Q 161.332 101.792 230.837 138.804 Q 234.463 145.68 232.837 157.807 L 232.837 198.813 L 227.337 205.314 L 148.324 248.321 C 140.038 258.08 127.745 262.753 115.319 264.324 L 115.319 264.324 L 36.306 221.317 Q 15.471 215.147 2.8 200.814 Q -0.7 191.812 0.8 177.81 L 0.8 131.803 C 1.592 128.241 5.245 127.832 8.301 128.302 L 8.301 128.302 L 94.815 169.809 L 116.319 180.31 C 119.02 184.092 124.044 184.64 128.321 184.311 L 128.321 184.311 L 149.824 172.809 L 147.324 169.309 Q 71.885 136.23 1.8 97.797 Q -1.2 90.796 0.8 78.794 L 0.8 29.786 C 4.223 15.574 12.753 3.497 27.624 0.788 C 32.787 -0.153 38.092 -0.156 43.307 0.281 L 43.307 0.281 Z " fill="url(#_rgradient_2)"/></g></svg>